<mxfile host="65bd71144e">
    <diagram id="yfRg6dMFhi6ZsOlCtadV" name="第 1 页">
        <mxGraphModel dx="896" dy="616" grid="1" gridSize="10" guides="1" tooltips="1" connect="1" arrows="1" fold="1" page="1" pageScale="1" pageWidth="827" pageHeight="1169" math="0" shadow="0">
            <root>
                <mxCell id="0"/>
                <mxCell id="1" parent="0"/>
                <mxCell id="2" value="" style="shape=table;startSize=0;container=1;collapsible=0;childLayout=tableLayout;" vertex="1" parent="1">
                    <mxGeometry x="100" y="50" width="600" height="80" as="geometry"/>
                </mxCell>
                <mxCell id="3" value="" style="shape=tableRow;horizontal=0;startSize=0;swimlaneHead=0;swimlaneBody=0;top=0;left=0;bottom=0;right=0;collapsible=0;dropTarget=0;fillColor=none;points=[[0,0.5],[1,0.5]];portConstraint=eastwest;" vertex="1" parent="2">
                    <mxGeometry width="600" height="40" as="geometry"/>
                </mxCell>
                <mxCell id="4" value="Name" style="shape=partialRectangle;html=1;whiteSpace=wrap;connectable=0;overflow=hidden;fillColor=#dae8fc;top=0;left=0;bottom=0;right=0;pointerEvents=1;strokeColor=#6c8ebf;" vertex="1" parent="3">
                    <mxGeometry width="60" height="40" as="geometry">
                        <mxRectangle width="60" height="40" as="alternateBounds"/>
                    </mxGeometry>
                </mxCell>
                <mxCell id="5" value="Start&lt;br&gt;Address" style="shape=partialRectangle;html=1;whiteSpace=wrap;connectable=0;overflow=hidden;fillColor=#dae8fc;top=0;left=0;bottom=0;right=0;pointerEvents=1;strokeColor=#6c8ebf;" vertex="1" parent="3">
                    <mxGeometry x="60" width="60" height="40" as="geometry">
                        <mxRectangle width="60" height="40" as="alternateBounds"/>
                    </mxGeometry>
                </mxCell>
                <mxCell id="6" value="End&lt;br&gt;Address" style="shape=partialRectangle;html=1;whiteSpace=wrap;connectable=0;overflow=hidden;fillColor=#dae8fc;top=0;left=0;bottom=0;right=0;pointerEvents=1;strokeColor=#6c8ebf;" vertex="1" parent="3">
                    <mxGeometry x="120" width="60" height="40" as="geometry">
                        <mxRectangle width="60" height="40" as="alternateBounds"/>
                    </mxGeometry>
                </mxCell>
                <mxCell id="7" value="Size" style="shape=partialRectangle;html=1;whiteSpace=wrap;connectable=0;overflow=hidden;fillColor=#dae8fc;top=0;left=0;bottom=0;right=0;pointerEvents=1;strokeColor=#6c8ebf;" vertex="1" parent="3">
                    <mxGeometry x="180" width="60" height="40" as="geometry">
                        <mxRectangle width="60" height="40" as="alternateBounds"/>
                    </mxGeometry>
                </mxCell>
                <mxCell id="8" value="x" style="shape=partialRectangle;html=1;whiteSpace=wrap;connectable=0;overflow=hidden;fillColor=#dae8fc;top=0;left=0;bottom=0;right=0;pointerEvents=1;strokeColor=#6c8ebf;" vertex="1" parent="3">
                    <mxGeometry x="240" width="60" height="40" as="geometry">
                        <mxRectangle width="60" height="40" as="alternateBounds"/>
                    </mxGeometry>
                </mxCell>
                <mxCell id="9" value="x" style="shape=partialRectangle;html=1;whiteSpace=wrap;connectable=0;overflow=hidden;fillColor=#dae8fc;top=0;left=0;bottom=0;right=0;pointerEvents=1;strokeColor=#6c8ebf;" vertex="1" parent="3">
                    <mxGeometry x="300" width="60" height="40" as="geometry">
                        <mxRectangle width="60" height="40" as="alternateBounds"/>
                    </mxGeometry>
                </mxCell>
                <mxCell id="10" value="x" style="shape=partialRectangle;html=1;whiteSpace=wrap;connectable=0;overflow=hidden;fillColor=#dae8fc;top=0;left=0;bottom=0;right=0;pointerEvents=1;strokeColor=#6c8ebf;" vertex="1" parent="3">
                    <mxGeometry x="360" width="60" height="40" as="geometry">
                        <mxRectangle width="60" height="40" as="alternateBounds"/>
                    </mxGeometry>
                </mxCell>
                <mxCell id="11" value="x" style="shape=partialRectangle;html=1;whiteSpace=wrap;connectable=0;overflow=hidden;fillColor=#dae8fc;top=0;left=0;bottom=0;right=0;pointerEvents=1;strokeColor=#6c8ebf;" vertex="1" parent="3">
                    <mxGeometry x="420" width="60" height="40" as="geometry">
                        <mxRectangle width="60" height="40" as="alternateBounds"/>
                    </mxGeometry>
                </mxCell>
                <mxCell id="12" value="x" style="shape=partialRectangle;html=1;whiteSpace=wrap;connectable=0;overflow=hidden;fillColor=#dae8fc;top=0;left=0;bottom=0;right=0;pointerEvents=1;strokeColor=#6c8ebf;" vertex="1" parent="3">
                    <mxGeometry x="480" width="60" height="40" as="geometry">
                        <mxRectangle width="60" height="40" as="alternateBounds"/>
                    </mxGeometry>
                </mxCell>
                <mxCell id="13" value="x" style="shape=partialRectangle;html=1;whiteSpace=wrap;connectable=0;overflow=hidden;fillColor=#dae8fc;top=0;left=0;bottom=0;right=0;pointerEvents=1;strokeColor=#6c8ebf;" vertex="1" parent="3">
                    <mxGeometry x="540" width="60" height="40" as="geometry">
                        <mxRectangle width="60" height="40" as="alternateBounds"/>
                    </mxGeometry>
                </mxCell>
                <mxCell id="14" value="" style="shape=tableRow;horizontal=0;startSize=0;swimlaneHead=0;swimlaneBody=0;top=0;left=0;bottom=0;right=0;collapsible=0;dropTarget=0;fillColor=none;points=[[0,0.5],[1,0.5]];portConstraint=eastwest;" vertex="1" parent="2">
                    <mxGeometry y="40" width="600" height="40" as="geometry"/>
                </mxCell>
                <mxCell id="15" value="Top" style="shape=partialRectangle;html=1;whiteSpace=wrap;connectable=0;overflow=hidden;fillColor=none;top=0;left=0;bottom=0;right=0;pointerEvents=1;" vertex="1" parent="14">
                    <mxGeometry width="60" height="40" as="geometry">
                        <mxRectangle width="60" height="40" as="alternateBounds"/>
                    </mxGeometry>
                </mxCell>
                <mxCell id="16" value="" style="shape=partialRectangle;html=1;whiteSpace=wrap;connectable=0;overflow=hidden;fillColor=none;top=0;left=0;bottom=0;right=0;pointerEvents=1;" vertex="1" parent="14">
                    <mxGeometry x="60" width="60" height="40" as="geometry">
                        <mxRectangle width="60" height="40" as="alternateBounds"/>
                    </mxGeometry>
                </mxCell>
                <mxCell id="17" value="" style="shape=partialRectangle;html=1;whiteSpace=wrap;connectable=0;overflow=hidden;fillColor=none;top=0;left=0;bottom=0;right=0;pointerEvents=1;" vertex="1" parent="14">
                    <mxGeometry x="120" width="60" height="40" as="geometry">
                        <mxRectangle width="60" height="40" as="alternateBounds"/>
                    </mxGeometry>
                </mxCell>
                <mxCell id="18" value="" style="shape=partialRectangle;html=1;whiteSpace=wrap;connectable=0;overflow=hidden;fillColor=none;top=0;left=0;bottom=0;right=0;pointerEvents=1;" vertex="1" parent="14">
                    <mxGeometry x="180" width="60" height="40" as="geometry">
                        <mxRectangle width="60" height="40" as="alternateBounds"/>
                    </mxGeometry>
                </mxCell>
                <mxCell id="19" value="" style="shape=partialRectangle;html=1;whiteSpace=wrap;connectable=0;overflow=hidden;fillColor=none;top=0;left=0;bottom=0;right=0;pointerEvents=1;" vertex="1" parent="14">
                    <mxGeometry x="240" width="60" height="40" as="geometry">
                        <mxRectangle width="60" height="40" as="alternateBounds"/>
                    </mxGeometry>
                </mxCell>
                <mxCell id="20" value="" style="shape=partialRectangle;html=1;whiteSpace=wrap;connectable=0;overflow=hidden;fillColor=none;top=0;left=0;bottom=0;right=0;pointerEvents=1;" vertex="1" parent="14">
                    <mxGeometry x="300" width="60" height="40" as="geometry">
                        <mxRectangle width="60" height="40" as="alternateBounds"/>
                    </mxGeometry>
                </mxCell>
                <mxCell id="21" value="" style="shape=partialRectangle;html=1;whiteSpace=wrap;connectable=0;overflow=hidden;fillColor=none;top=0;left=0;bottom=0;right=0;pointerEvents=1;" vertex="1" parent="14">
                    <mxGeometry x="360" width="60" height="40" as="geometry">
                        <mxRectangle width="60" height="40" as="alternateBounds"/>
                    </mxGeometry>
                </mxCell>
                <mxCell id="22" value="" style="shape=partialRectangle;html=1;whiteSpace=wrap;connectable=0;overflow=hidden;fillColor=none;top=0;left=0;bottom=0;right=0;pointerEvents=1;" vertex="1" parent="14">
                    <mxGeometry x="420" width="60" height="40" as="geometry">
                        <mxRectangle width="60" height="40" as="alternateBounds"/>
                    </mxGeometry>
                </mxCell>
                <mxCell id="23" value="" style="shape=partialRectangle;html=1;whiteSpace=wrap;connectable=0;overflow=hidden;fillColor=none;top=0;left=0;bottom=0;right=0;pointerEvents=1;" vertex="1" parent="14">
                    <mxGeometry x="480" width="60" height="40" as="geometry">
                        <mxRectangle width="60" height="40" as="alternateBounds"/>
                    </mxGeometry>
                </mxCell>
                <mxCell id="24" value="" style="shape=partialRectangle;html=1;whiteSpace=wrap;connectable=0;overflow=hidden;fillColor=none;top=0;left=0;bottom=0;right=0;pointerEvents=1;" vertex="1" parent="14">
                    <mxGeometry x="540" width="60" height="40" as="geometry">
                        <mxRectangle width="60" height="40" as="alternateBounds"/>
                    </mxGeometry>
                </mxCell>
                <mxCell id="25" value="" style="shape=table;startSize=0;container=1;collapsible=0;childLayout=tableLayout;" vertex="1" parent="1">
                    <mxGeometry x="110" y="130" width="600" height="80" as="geometry"/>
                </mxCell>
                <mxCell id="26" value="" style="shape=tableRow;horizontal=0;startSize=0;swimlaneHead=0;swimlaneBody=0;top=0;left=0;bottom=0;right=0;collapsible=0;dropTarget=0;fillColor=none;points=[[0,0.5],[1,0.5]];portConstraint=eastwest;" vertex="1" parent="25">
                    <mxGeometry width="600" height="40" as="geometry"/>
                </mxCell>
                <mxCell id="27" value="Sys1_blk1" style="shape=partialRectangle;html=1;whiteSpace=wrap;connectable=0;overflow=hidden;fillColor=none;top=0;left=0;bottom=0;right=0;pointerEvents=1;" vertex="1" parent="26">
                    <mxGeometry width="60" height="40" as="geometry">
                        <mxRectangle width="60" height="40" as="alternateBounds"/>
                    </mxGeometry>
                </mxCell>
                <mxCell id="28" value="" style="shape=partialRectangle;html=1;whiteSpace=wrap;connectable=0;overflow=hidden;fillColor=none;top=0;left=0;bottom=0;right=0;pointerEvents=1;" vertex="1" parent="26">
                    <mxGeometry x="60" width="60" height="40" as="geometry">
                        <mxRectangle width="60" height="40" as="alternateBounds"/>
                    </mxGeometry>
                </mxCell>
                <mxCell id="29" value="" style="shape=partialRectangle;html=1;whiteSpace=wrap;connectable=0;overflow=hidden;fillColor=none;top=0;left=0;bottom=0;right=0;pointerEvents=1;" vertex="1" parent="26">
                    <mxGeometry x="120" width="60" height="40" as="geometry">
                        <mxRectangle width="60" height="40" as="alternateBounds"/>
                    </mxGeometry>
                </mxCell>
                <mxCell id="30" value="" style="shape=partialRectangle;html=1;whiteSpace=wrap;connectable=0;overflow=hidden;fillColor=none;top=0;left=0;bottom=0;right=0;pointerEvents=1;" vertex="1" parent="26">
                    <mxGeometry x="180" width="60" height="40" as="geometry">
                        <mxRectangle width="60" height="40" as="alternateBounds"/>
                    </mxGeometry>
                </mxCell>
                <mxCell id="31" value="" style="shape=partialRectangle;html=1;whiteSpace=wrap;connectable=0;overflow=hidden;fillColor=none;top=0;left=0;bottom=0;right=0;pointerEvents=1;" vertex="1" parent="26">
                    <mxGeometry x="240" width="60" height="40" as="geometry">
                        <mxRectangle width="60" height="40" as="alternateBounds"/>
                    </mxGeometry>
                </mxCell>
                <mxCell id="32" value="" style="shape=partialRectangle;html=1;whiteSpace=wrap;connectable=0;overflow=hidden;fillColor=none;top=0;left=0;bottom=0;right=0;pointerEvents=1;" vertex="1" parent="26">
                    <mxGeometry x="300" width="60" height="40" as="geometry">
                        <mxRectangle width="60" height="40" as="alternateBounds"/>
                    </mxGeometry>
                </mxCell>
                <mxCell id="33" value="" style="shape=partialRectangle;html=1;whiteSpace=wrap;connectable=0;overflow=hidden;fillColor=none;top=0;left=0;bottom=0;right=0;pointerEvents=1;" vertex="1" parent="26">
                    <mxGeometry x="360" width="60" height="40" as="geometry">
                        <mxRectangle width="60" height="40" as="alternateBounds"/>
                    </mxGeometry>
                </mxCell>
                <mxCell id="34" value="" style="shape=partialRectangle;html=1;whiteSpace=wrap;connectable=0;overflow=hidden;fillColor=none;top=0;left=0;bottom=0;right=0;pointerEvents=1;" vertex="1" parent="26">
                    <mxGeometry x="420" width="60" height="40" as="geometry">
                        <mxRectangle width="60" height="40" as="alternateBounds"/>
                    </mxGeometry>
                </mxCell>
                <mxCell id="35" value="" style="shape=partialRectangle;html=1;whiteSpace=wrap;connectable=0;overflow=hidden;fillColor=none;top=0;left=0;bottom=0;right=0;pointerEvents=1;" vertex="1" parent="26">
                    <mxGeometry x="480" width="60" height="40" as="geometry">
                        <mxRectangle width="60" height="40" as="alternateBounds"/>
                    </mxGeometry>
                </mxCell>
                <mxCell id="36" value="" style="shape=partialRectangle;html=1;whiteSpace=wrap;connectable=0;overflow=hidden;fillColor=none;top=0;left=0;bottom=0;right=0;pointerEvents=1;" vertex="1" parent="26">
                    <mxGeometry x="540" width="60" height="40" as="geometry">
                        <mxRectangle width="60" height="40" as="alternateBounds"/>
                    </mxGeometry>
                </mxCell>
                <mxCell id="37" value="" style="shape=tableRow;horizontal=0;startSize=0;swimlaneHead=0;swimlaneBody=0;top=0;left=0;bottom=0;right=0;collapsible=0;dropTarget=0;fillColor=none;points=[[0,0.5],[1,0.5]];portConstraint=eastwest;" vertex="1" parent="25">
                    <mxGeometry y="40" width="600" height="40" as="geometry"/>
                </mxCell>
                <mxCell id="38" value="Sys1_blk2" style="shape=partialRectangle;html=1;whiteSpace=wrap;connectable=0;overflow=hidden;fillColor=none;top=0;left=0;bottom=0;right=0;pointerEvents=1;" vertex="1" parent="37">
                    <mxGeometry width="60" height="40" as="geometry">
                        <mxRectangle width="60" height="40" as="alternateBounds"/>
                    </mxGeometry>
                </mxCell>
                <mxCell id="39" value="" style="shape=partialRectangle;html=1;whiteSpace=wrap;connectable=0;overflow=hidden;fillColor=none;top=0;left=0;bottom=0;right=0;pointerEvents=1;" vertex="1" parent="37">
                    <mxGeometry x="60" width="60" height="40" as="geometry">
                        <mxRectangle width="60" height="40" as="alternateBounds"/>
                    </mxGeometry>
                </mxCell>
                <mxCell id="40" value="" style="shape=partialRectangle;html=1;whiteSpace=wrap;connectable=0;overflow=hidden;fillColor=none;top=0;left=0;bottom=0;right=0;pointerEvents=1;" vertex="1" parent="37">
                    <mxGeometry x="120" width="60" height="40" as="geometry">
                        <mxRectangle width="60" height="40" as="alternateBounds"/>
                    </mxGeometry>
                </mxCell>
                <mxCell id="41" value="" style="shape=partialRectangle;html=1;whiteSpace=wrap;connectable=0;overflow=hidden;fillColor=none;top=0;left=0;bottom=0;right=0;pointerEvents=1;" vertex="1" parent="37">
                    <mxGeometry x="180" width="60" height="40" as="geometry">
                        <mxRectangle width="60" height="40" as="alternateBounds"/>
                    </mxGeometry>
                </mxCell>
                <mxCell id="42" value="" style="shape=partialRectangle;html=1;whiteSpace=wrap;connectable=0;overflow=hidden;fillColor=none;top=0;left=0;bottom=0;right=0;pointerEvents=1;" vertex="1" parent="37">
                    <mxGeometry x="240" width="60" height="40" as="geometry">
                        <mxRectangle width="60" height="40" as="alternateBounds"/>
                    </mxGeometry>
                </mxCell>
                <mxCell id="43" value="" style="shape=partialRectangle;html=1;whiteSpace=wrap;connectable=0;overflow=hidden;fillColor=none;top=0;left=0;bottom=0;right=0;pointerEvents=1;" vertex="1" parent="37">
                    <mxGeometry x="300" width="60" height="40" as="geometry">
                        <mxRectangle width="60" height="40" as="alternateBounds"/>
                    </mxGeometry>
                </mxCell>
                <mxCell id="44" value="" style="shape=partialRectangle;html=1;whiteSpace=wrap;connectable=0;overflow=hidden;fillColor=none;top=0;left=0;bottom=0;right=0;pointerEvents=1;" vertex="1" parent="37">
                    <mxGeometry x="360" width="60" height="40" as="geometry">
                        <mxRectangle width="60" height="40" as="alternateBounds"/>
                    </mxGeometry>
                </mxCell>
                <mxCell id="45" value="" style="shape=partialRectangle;html=1;whiteSpace=wrap;connectable=0;overflow=hidden;fillColor=none;top=0;left=0;bottom=0;right=0;pointerEvents=1;" vertex="1" parent="37">
                    <mxGeometry x="420" width="60" height="40" as="geometry">
                        <mxRectangle width="60" height="40" as="alternateBounds"/>
                    </mxGeometry>
                </mxCell>
                <mxCell id="46" value="" style="shape=partialRectangle;html=1;whiteSpace=wrap;connectable=0;overflow=hidden;fillColor=none;top=0;left=0;bottom=0;right=0;pointerEvents=1;" vertex="1" parent="37">
                    <mxGeometry x="480" width="60" height="40" as="geometry">
                        <mxRectangle width="60" height="40" as="alternateBounds"/>
                    </mxGeometry>
                </mxCell>
                <mxCell id="47" value="" style="shape=partialRectangle;html=1;whiteSpace=wrap;connectable=0;overflow=hidden;fillColor=none;top=0;left=0;bottom=0;right=0;pointerEvents=1;" vertex="1" parent="37">
                    <mxGeometry x="540" width="60" height="40" as="geometry">
                        <mxRectangle width="60" height="40" as="alternateBounds"/>
                    </mxGeometry>
                </mxCell>
                <mxCell id="48" value="" style="shape=table;startSize=0;container=1;collapsible=0;childLayout=tableLayout;" vertex="1" parent="1">
                    <mxGeometry x="120" y="210" width="600" height="80" as="geometry"/>
                </mxCell>
                <mxCell id="49" value="" style="shape=tableRow;horizontal=0;startSize=0;swimlaneHead=0;swimlaneBody=0;top=0;left=0;bottom=0;right=0;collapsible=0;dropTarget=0;fillColor=none;points=[[0,0.5],[1,0.5]];portConstraint=eastwest;" vertex="1" parent="48">
                    <mxGeometry width="600" height="40" as="geometry"/>
                </mxCell>
                <mxCell id="50" value="IP1" style="shape=partialRectangle;html=1;whiteSpace=wrap;connectable=0;overflow=hidden;fillColor=none;top=0;left=0;bottom=0;right=0;pointerEvents=1;" vertex="1" parent="49">
                    <mxGeometry width="60" height="40" as="geometry">
                        <mxRectangle width="60" height="40" as="alternateBounds"/>
                    </mxGeometry>
                </mxCell>
                <mxCell id="51" value="" style="shape=partialRectangle;html=1;whiteSpace=wrap;connectable=0;overflow=hidden;fillColor=none;top=0;left=0;bottom=0;right=0;pointerEvents=1;" vertex="1" parent="49">
                    <mxGeometry x="60" width="60" height="40" as="geometry">
                        <mxRectangle width="60" height="40" as="alternateBounds"/>
                    </mxGeometry>
                </mxCell>
                <mxCell id="52" value="" style="shape=partialRectangle;html=1;whiteSpace=wrap;connectable=0;overflow=hidden;fillColor=none;top=0;left=0;bottom=0;right=0;pointerEvents=1;" vertex="1" parent="49">
                    <mxGeometry x="120" width="60" height="40" as="geometry">
                        <mxRectangle width="60" height="40" as="alternateBounds"/>
                    </mxGeometry>
                </mxCell>
                <mxCell id="53" value="" style="shape=partialRectangle;html=1;whiteSpace=wrap;connectable=0;overflow=hidden;fillColor=none;top=0;left=0;bottom=0;right=0;pointerEvents=1;" vertex="1" parent="49">
                    <mxGeometry x="180" width="60" height="40" as="geometry">
                        <mxRectangle width="60" height="40" as="alternateBounds"/>
                    </mxGeometry>
                </mxCell>
                <mxCell id="54" value="" style="shape=partialRectangle;html=1;whiteSpace=wrap;connectable=0;overflow=hidden;fillColor=none;top=0;left=0;bottom=0;right=0;pointerEvents=1;" vertex="1" parent="49">
                    <mxGeometry x="240" width="60" height="40" as="geometry">
                        <mxRectangle width="60" height="40" as="alternateBounds"/>
                    </mxGeometry>
                </mxCell>
                <mxCell id="55" value="" style="shape=partialRectangle;html=1;whiteSpace=wrap;connectable=0;overflow=hidden;fillColor=none;top=0;left=0;bottom=0;right=0;pointerEvents=1;" vertex="1" parent="49">
                    <mxGeometry x="300" width="60" height="40" as="geometry">
                        <mxRectangle width="60" height="40" as="alternateBounds"/>
                    </mxGeometry>
                </mxCell>
                <mxCell id="56" value="" style="shape=partialRectangle;html=1;whiteSpace=wrap;connectable=0;overflow=hidden;fillColor=none;top=0;left=0;bottom=0;right=0;pointerEvents=1;" vertex="1" parent="49">
                    <mxGeometry x="360" width="60" height="40" as="geometry">
                        <mxRectangle width="60" height="40" as="alternateBounds"/>
                    </mxGeometry>
                </mxCell>
                <mxCell id="57" value="" style="shape=partialRectangle;html=1;whiteSpace=wrap;connectable=0;overflow=hidden;fillColor=none;top=0;left=0;bottom=0;right=0;pointerEvents=1;" vertex="1" parent="49">
                    <mxGeometry x="420" width="60" height="40" as="geometry">
                        <mxRectangle width="60" height="40" as="alternateBounds"/>
                    </mxGeometry>
                </mxCell>
                <mxCell id="58" value="" style="shape=partialRectangle;html=1;whiteSpace=wrap;connectable=0;overflow=hidden;fillColor=none;top=0;left=0;bottom=0;right=0;pointerEvents=1;" vertex="1" parent="49">
                    <mxGeometry x="480" width="60" height="40" as="geometry">
                        <mxRectangle width="60" height="40" as="alternateBounds"/>
                    </mxGeometry>
                </mxCell>
                <mxCell id="59" value="" style="shape=partialRectangle;html=1;whiteSpace=wrap;connectable=0;overflow=hidden;fillColor=none;top=0;left=0;bottom=0;right=0;pointerEvents=1;" vertex="1" parent="49">
                    <mxGeometry x="540" width="60" height="40" as="geometry">
                        <mxRectangle width="60" height="40" as="alternateBounds"/>
                    </mxGeometry>
                </mxCell>
                <mxCell id="60" value="" style="shape=tableRow;horizontal=0;startSize=0;swimlaneHead=0;swimlaneBody=0;top=0;left=0;bottom=0;right=0;collapsible=0;dropTarget=0;fillColor=none;points=[[0,0.5],[1,0.5]];portConstraint=eastwest;" vertex="1" parent="48">
                    <mxGeometry y="40" width="600" height="40" as="geometry"/>
                </mxCell>
                <mxCell id="61" value="RegBank2" style="shape=partialRectangle;html=1;whiteSpace=wrap;connectable=0;overflow=hidden;fillColor=none;top=0;left=0;bottom=0;right=0;pointerEvents=1;" vertex="1" parent="60">
                    <mxGeometry width="60" height="40" as="geometry">
                        <mxRectangle width="60" height="40" as="alternateBounds"/>
                    </mxGeometry>
                </mxCell>
                <mxCell id="62" value="" style="shape=partialRectangle;html=1;whiteSpace=wrap;connectable=0;overflow=hidden;fillColor=none;top=0;left=0;bottom=0;right=0;pointerEvents=1;" vertex="1" parent="60">
                    <mxGeometry x="60" width="60" height="40" as="geometry">
                        <mxRectangle width="60" height="40" as="alternateBounds"/>
                    </mxGeometry>
                </mxCell>
                <mxCell id="63" value="" style="shape=partialRectangle;html=1;whiteSpace=wrap;connectable=0;overflow=hidden;fillColor=none;top=0;left=0;bottom=0;right=0;pointerEvents=1;" vertex="1" parent="60">
                    <mxGeometry x="120" width="60" height="40" as="geometry">
                        <mxRectangle width="60" height="40" as="alternateBounds"/>
                    </mxGeometry>
                </mxCell>
                <mxCell id="64" value="" style="shape=partialRectangle;html=1;whiteSpace=wrap;connectable=0;overflow=hidden;fillColor=none;top=0;left=0;bottom=0;right=0;pointerEvents=1;" vertex="1" parent="60">
                    <mxGeometry x="180" width="60" height="40" as="geometry">
                        <mxRectangle width="60" height="40" as="alternateBounds"/>
                    </mxGeometry>
                </mxCell>
                <mxCell id="65" value="" style="shape=partialRectangle;html=1;whiteSpace=wrap;connectable=0;overflow=hidden;fillColor=none;top=0;left=0;bottom=0;right=0;pointerEvents=1;" vertex="1" parent="60">
                    <mxGeometry x="240" width="60" height="40" as="geometry">
                        <mxRectangle width="60" height="40" as="alternateBounds"/>
                    </mxGeometry>
                </mxCell>
                <mxCell id="66" value="" style="shape=partialRectangle;html=1;whiteSpace=wrap;connectable=0;overflow=hidden;fillColor=none;top=0;left=0;bottom=0;right=0;pointerEvents=1;" vertex="1" parent="60">
                    <mxGeometry x="300" width="60" height="40" as="geometry">
                        <mxRectangle width="60" height="40" as="alternateBounds"/>
                    </mxGeometry>
                </mxCell>
                <mxCell id="67" value="" style="shape=partialRectangle;html=1;whiteSpace=wrap;connectable=0;overflow=hidden;fillColor=none;top=0;left=0;bottom=0;right=0;pointerEvents=1;" vertex="1" parent="60">
                    <mxGeometry x="360" width="60" height="40" as="geometry">
                        <mxRectangle width="60" height="40" as="alternateBounds"/>
                    </mxGeometry>
                </mxCell>
                <mxCell id="68" value="" style="shape=partialRectangle;html=1;whiteSpace=wrap;connectable=0;overflow=hidden;fillColor=none;top=0;left=0;bottom=0;right=0;pointerEvents=1;" vertex="1" parent="60">
                    <mxGeometry x="420" width="60" height="40" as="geometry">
                        <mxRectangle width="60" height="40" as="alternateBounds"/>
                    </mxGeometry>
                </mxCell>
                <mxCell id="69" value="" style="shape=partialRectangle;html=1;whiteSpace=wrap;connectable=0;overflow=hidden;fillColor=none;top=0;left=0;bottom=0;right=0;pointerEvents=1;" vertex="1" parent="60">
                    <mxGeometry x="480" width="60" height="40" as="geometry">
                        <mxRectangle width="60" height="40" as="alternateBounds"/>
                    </mxGeometry>
                </mxCell>
                <mxCell id="70" value="" style="shape=partialRectangle;html=1;whiteSpace=wrap;connectable=0;overflow=hidden;fillColor=none;top=0;left=0;bottom=0;right=0;pointerEvents=1;" vertex="1" parent="60">
                    <mxGeometry x="540" width="60" height="40" as="geometry">
                        <mxRectangle width="60" height="40" as="alternateBounds"/>
                    </mxGeometry>
                </mxCell>
                <mxCell id="71" value="" style="shape=table;startSize=0;container=1;collapsible=0;childLayout=tableLayout;" vertex="1" parent="1">
                    <mxGeometry x="110" y="550" width="600" height="80" as="geometry"/>
                </mxCell>
                <mxCell id="72" value="" style="shape=tableRow;horizontal=0;startSize=0;swimlaneHead=0;swimlaneBody=0;top=0;left=0;bottom=0;right=0;collapsible=0;dropTarget=0;fillColor=none;points=[[0,0.5],[1,0.5]];portConstraint=eastwest;" vertex="1" parent="71">
                    <mxGeometry width="600" height="40" as="geometry"/>
                </mxCell>
                <mxCell id="73" value="Sys3" style="shape=partialRectangle;html=1;whiteSpace=wrap;connectable=0;overflow=hidden;fillColor=none;top=0;left=0;bottom=0;right=0;pointerEvents=1;" vertex="1" parent="72">
                    <mxGeometry width="60" height="40" as="geometry">
                        <mxRectangle width="60" height="40" as="alternateBounds"/>
                    </mxGeometry>
                </mxCell>
                <mxCell id="74" value="" style="shape=partialRectangle;html=1;whiteSpace=wrap;connectable=0;overflow=hidden;fillColor=none;top=0;left=0;bottom=0;right=0;pointerEvents=1;" vertex="1" parent="72">
                    <mxGeometry x="60" width="60" height="40" as="geometry">
                        <mxRectangle width="60" height="40" as="alternateBounds"/>
                    </mxGeometry>
                </mxCell>
                <mxCell id="75" value="" style="shape=partialRectangle;html=1;whiteSpace=wrap;connectable=0;overflow=hidden;fillColor=none;top=0;left=0;bottom=0;right=0;pointerEvents=1;" vertex="1" parent="72">
                    <mxGeometry x="120" width="60" height="40" as="geometry">
                        <mxRectangle width="60" height="40" as="alternateBounds"/>
                    </mxGeometry>
                </mxCell>
                <mxCell id="76" value="" style="shape=partialRectangle;html=1;whiteSpace=wrap;connectable=0;overflow=hidden;fillColor=none;top=0;left=0;bottom=0;right=0;pointerEvents=1;" vertex="1" parent="72">
                    <mxGeometry x="180" width="60" height="40" as="geometry">
                        <mxRectangle width="60" height="40" as="alternateBounds"/>
                    </mxGeometry>
                </mxCell>
                <mxCell id="77" value="" style="shape=partialRectangle;html=1;whiteSpace=wrap;connectable=0;overflow=hidden;fillColor=none;top=0;left=0;bottom=0;right=0;pointerEvents=1;" vertex="1" parent="72">
                    <mxGeometry x="240" width="60" height="40" as="geometry">
                        <mxRectangle width="60" height="40" as="alternateBounds"/>
                    </mxGeometry>
                </mxCell>
                <mxCell id="78" value="" style="shape=partialRectangle;html=1;whiteSpace=wrap;connectable=0;overflow=hidden;fillColor=none;top=0;left=0;bottom=0;right=0;pointerEvents=1;" vertex="1" parent="72">
                    <mxGeometry x="300" width="60" height="40" as="geometry">
                        <mxRectangle width="60" height="40" as="alternateBounds"/>
                    </mxGeometry>
                </mxCell>
                <mxCell id="79" value="" style="shape=partialRectangle;html=1;whiteSpace=wrap;connectable=0;overflow=hidden;fillColor=none;top=0;left=0;bottom=0;right=0;pointerEvents=1;" vertex="1" parent="72">
                    <mxGeometry x="360" width="60" height="40" as="geometry">
                        <mxRectangle width="60" height="40" as="alternateBounds"/>
                    </mxGeometry>
                </mxCell>
                <mxCell id="80" value="" style="shape=partialRectangle;html=1;whiteSpace=wrap;connectable=0;overflow=hidden;fillColor=none;top=0;left=0;bottom=0;right=0;pointerEvents=1;" vertex="1" parent="72">
                    <mxGeometry x="420" width="60" height="40" as="geometry">
                        <mxRectangle width="60" height="40" as="alternateBounds"/>
                    </mxGeometry>
                </mxCell>
                <mxCell id="81" value="" style="shape=partialRectangle;html=1;whiteSpace=wrap;connectable=0;overflow=hidden;fillColor=none;top=0;left=0;bottom=0;right=0;pointerEvents=1;" vertex="1" parent="72">
                    <mxGeometry x="480" width="60" height="40" as="geometry">
                        <mxRectangle width="60" height="40" as="alternateBounds"/>
                    </mxGeometry>
                </mxCell>
                <mxCell id="82" value="" style="shape=partialRectangle;html=1;whiteSpace=wrap;connectable=0;overflow=hidden;fillColor=none;top=0;left=0;bottom=0;right=0;pointerEvents=1;" vertex="1" parent="72">
                    <mxGeometry x="540" width="60" height="40" as="geometry">
                        <mxRectangle width="60" height="40" as="alternateBounds"/>
                    </mxGeometry>
                </mxCell>
                <mxCell id="83" value="" style="shape=tableRow;horizontal=0;startSize=0;swimlaneHead=0;swimlaneBody=0;top=0;left=0;bottom=0;right=0;collapsible=0;dropTarget=0;fillColor=none;points=[[0,0.5],[1,0.5]];portConstraint=eastwest;" vertex="1" parent="71">
                    <mxGeometry y="40" width="600" height="40" as="geometry"/>
                </mxCell>
                <mxCell id="84" value="Sys4" style="shape=partialRectangle;html=1;whiteSpace=wrap;connectable=0;overflow=hidden;fillColor=none;top=0;left=0;bottom=0;right=0;pointerEvents=1;" vertex="1" parent="83">
                    <mxGeometry width="60" height="40" as="geometry">
                        <mxRectangle width="60" height="40" as="alternateBounds"/>
                    </mxGeometry>
                </mxCell>
                <mxCell id="85" value="" style="shape=partialRectangle;html=1;whiteSpace=wrap;connectable=0;overflow=hidden;fillColor=none;top=0;left=0;bottom=0;right=0;pointerEvents=1;" vertex="1" parent="83">
                    <mxGeometry x="60" width="60" height="40" as="geometry">
                        <mxRectangle width="60" height="40" as="alternateBounds"/>
                    </mxGeometry>
                </mxCell>
                <mxCell id="86" value="" style="shape=partialRectangle;html=1;whiteSpace=wrap;connectable=0;overflow=hidden;fillColor=none;top=0;left=0;bottom=0;right=0;pointerEvents=1;" vertex="1" parent="83">
                    <mxGeometry x="120" width="60" height="40" as="geometry">
                        <mxRectangle width="60" height="40" as="alternateBounds"/>
                    </mxGeometry>
                </mxCell>
                <mxCell id="87" value="" style="shape=partialRectangle;html=1;whiteSpace=wrap;connectable=0;overflow=hidden;fillColor=none;top=0;left=0;bottom=0;right=0;pointerEvents=1;" vertex="1" parent="83">
                    <mxGeometry x="180" width="60" height="40" as="geometry">
                        <mxRectangle width="60" height="40" as="alternateBounds"/>
                    </mxGeometry>
                </mxCell>
                <mxCell id="88" value="" style="shape=partialRectangle;html=1;whiteSpace=wrap;connectable=0;overflow=hidden;fillColor=none;top=0;left=0;bottom=0;right=0;pointerEvents=1;" vertex="1" parent="83">
                    <mxGeometry x="240" width="60" height="40" as="geometry">
                        <mxRectangle width="60" height="40" as="alternateBounds"/>
                    </mxGeometry>
                </mxCell>
                <mxCell id="89" value="" style="shape=partialRectangle;html=1;whiteSpace=wrap;connectable=0;overflow=hidden;fillColor=none;top=0;left=0;bottom=0;right=0;pointerEvents=1;" vertex="1" parent="83">
                    <mxGeometry x="300" width="60" height="40" as="geometry">
                        <mxRectangle width="60" height="40" as="alternateBounds"/>
                    </mxGeometry>
                </mxCell>
                <mxCell id="90" value="" style="shape=partialRectangle;html=1;whiteSpace=wrap;connectable=0;overflow=hidden;fillColor=none;top=0;left=0;bottom=0;right=0;pointerEvents=1;" vertex="1" parent="83">
                    <mxGeometry x="360" width="60" height="40" as="geometry">
                        <mxRectangle width="60" height="40" as="alternateBounds"/>
                    </mxGeometry>
                </mxCell>
                <mxCell id="91" value="" style="shape=partialRectangle;html=1;whiteSpace=wrap;connectable=0;overflow=hidden;fillColor=none;top=0;left=0;bottom=0;right=0;pointerEvents=1;" vertex="1" parent="83">
                    <mxGeometry x="420" width="60" height="40" as="geometry">
                        <mxRectangle width="60" height="40" as="alternateBounds"/>
                    </mxGeometry>
                </mxCell>
                <mxCell id="92" value="" style="shape=partialRectangle;html=1;whiteSpace=wrap;connectable=0;overflow=hidden;fillColor=none;top=0;left=0;bottom=0;right=0;pointerEvents=1;" vertex="1" parent="83">
                    <mxGeometry x="480" width="60" height="40" as="geometry">
                        <mxRectangle width="60" height="40" as="alternateBounds"/>
                    </mxGeometry>
                </mxCell>
                <mxCell id="93" value="" style="shape=partialRectangle;html=1;whiteSpace=wrap;connectable=0;overflow=hidden;fillColor=none;top=0;left=0;bottom=0;right=0;pointerEvents=1;" vertex="1" parent="83">
                    <mxGeometry x="540" width="60" height="40" as="geometry">
                        <mxRectangle width="60" height="40" as="alternateBounds"/>
                    </mxGeometry>
                </mxCell>
                <mxCell id="94" value="" style="shape=table;startSize=0;container=1;collapsible=0;childLayout=tableLayout;" vertex="1" parent="1">
                    <mxGeometry x="140" y="370" width="580" height="120" as="geometry"/>
                </mxCell>
                <mxCell id="95" value="" style="shape=tableRow;horizontal=0;startSize=0;swimlaneHead=0;swimlaneBody=0;top=0;left=0;bottom=0;right=0;collapsible=0;dropTarget=0;fillColor=none;points=[[0,0.5],[1,0.5]];portConstraint=eastwest;" vertex="1" parent="94">
                    <mxGeometry width="580" height="40" as="geometry"/>
                </mxCell>
                <mxCell id="96" value="Field Name" style="shape=partialRectangle;html=1;whiteSpace=wrap;connectable=0;overflow=hidden;fillColor=#dae8fc;top=0;left=0;bottom=0;right=0;pointerEvents=1;strokeColor=#6c8ebf;" vertex="1" parent="95">
                    <mxGeometry width="83" height="40" as="geometry">
                        <mxRectangle width="83" height="40" as="alternateBounds"/>
                    </mxGeometry>
                </mxCell>
                <mxCell id="97" value="Bit Width" style="shape=partialRectangle;html=1;whiteSpace=wrap;connectable=0;overflow=hidden;fillColor=#dae8fc;top=0;left=0;bottom=0;right=0;pointerEvents=1;strokeColor=#6c8ebf;" vertex="1" parent="95">
                    <mxGeometry x="83" width="83" height="40" as="geometry">
                        <mxRectangle width="83" height="40" as="alternateBounds"/>
                    </mxGeometry>
                </mxCell>
                <mxCell id="98" value="x" style="shape=partialRectangle;html=1;whiteSpace=wrap;connectable=0;overflow=hidden;fillColor=#dae8fc;top=0;left=0;bottom=0;right=0;pointerEvents=1;strokeColor=#6c8ebf;" vertex="1" parent="95">
                    <mxGeometry x="166" width="83" height="40" as="geometry">
                        <mxRectangle width="83" height="40" as="alternateBounds"/>
                    </mxGeometry>
                </mxCell>
                <mxCell id="99" value="x" style="shape=partialRectangle;html=1;whiteSpace=wrap;connectable=0;overflow=hidden;fillColor=#dae8fc;top=0;left=0;bottom=0;right=0;pointerEvents=1;strokeColor=#6c8ebf;" vertex="1" parent="95">
                    <mxGeometry x="249" width="82" height="40" as="geometry">
                        <mxRectangle width="82" height="40" as="alternateBounds"/>
                    </mxGeometry>
                </mxCell>
                <mxCell id="100" value="x" style="shape=partialRectangle;html=1;whiteSpace=wrap;connectable=0;overflow=hidden;fillColor=#dae8fc;top=0;left=0;bottom=0;right=0;pointerEvents=1;strokeColor=#6c8ebf;" vertex="1" parent="95">
                    <mxGeometry x="331" width="83" height="40" as="geometry">
                        <mxRectangle width="83" height="40" as="alternateBounds"/>
                    </mxGeometry>
                </mxCell>
                <mxCell id="101" value="x" style="shape=partialRectangle;html=1;whiteSpace=wrap;connectable=0;overflow=hidden;fillColor=#dae8fc;top=0;left=0;bottom=0;right=0;pointerEvents=1;strokeColor=#6c8ebf;" vertex="1" parent="95">
                    <mxGeometry x="414" width="83" height="40" as="geometry">
                        <mxRectangle width="83" height="40" as="alternateBounds"/>
                    </mxGeometry>
                </mxCell>
                <mxCell id="102" value="x" style="shape=partialRectangle;html=1;whiteSpace=wrap;connectable=0;overflow=hidden;fillColor=#dae8fc;top=0;left=0;bottom=0;right=0;pointerEvents=1;strokeColor=#6c8ebf;" vertex="1" parent="95">
                    <mxGeometry x="497" width="83" height="40" as="geometry">
                        <mxRectangle width="83" height="40" as="alternateBounds"/>
                    </mxGeometry>
                </mxCell>
                <mxCell id="103" value="" style="shape=tableRow;horizontal=0;startSize=0;swimlaneHead=0;swimlaneBody=0;top=0;left=0;bottom=0;right=0;collapsible=0;dropTarget=0;fillColor=none;points=[[0,0.5],[1,0.5]];portConstraint=eastwest;" vertex="1" parent="94">
                    <mxGeometry y="40" width="580" height="40" as="geometry"/>
                </mxCell>
                <mxCell id="104" value="" style="shape=partialRectangle;html=1;whiteSpace=wrap;connectable=0;overflow=hidden;fillColor=none;top=0;left=0;bottom=0;right=0;pointerEvents=1;" vertex="1" parent="103">
                    <mxGeometry width="83" height="40" as="geometry">
                        <mxRectangle width="83" height="40" as="alternateBounds"/>
                    </mxGeometry>
                </mxCell>
                <mxCell id="105" value="" style="shape=partialRectangle;html=1;whiteSpace=wrap;connectable=0;overflow=hidden;fillColor=none;top=0;left=0;bottom=0;right=0;pointerEvents=1;" vertex="1" parent="103">
                    <mxGeometry x="83" width="83" height="40" as="geometry">
                        <mxRectangle width="83" height="40" as="alternateBounds"/>
                    </mxGeometry>
                </mxCell>
                <mxCell id="106" value="" style="shape=partialRectangle;html=1;whiteSpace=wrap;connectable=0;overflow=hidden;fillColor=none;top=0;left=0;bottom=0;right=0;pointerEvents=1;" vertex="1" parent="103">
                    <mxGeometry x="166" width="83" height="40" as="geometry">
                        <mxRectangle width="83" height="40" as="alternateBounds"/>
                    </mxGeometry>
                </mxCell>
                <mxCell id="107" value="" style="shape=partialRectangle;html=1;whiteSpace=wrap;connectable=0;overflow=hidden;fillColor=none;top=0;left=0;bottom=0;right=0;pointerEvents=1;" vertex="1" parent="103">
                    <mxGeometry x="249" width="82" height="40" as="geometry">
                        <mxRectangle width="82" height="40" as="alternateBounds"/>
                    </mxGeometry>
                </mxCell>
                <mxCell id="108" value="" style="shape=partialRectangle;html=1;whiteSpace=wrap;connectable=0;overflow=hidden;fillColor=none;top=0;left=0;bottom=0;right=0;pointerEvents=1;" vertex="1" parent="103">
                    <mxGeometry x="331" width="83" height="40" as="geometry">
                        <mxRectangle width="83" height="40" as="alternateBounds"/>
                    </mxGeometry>
                </mxCell>
                <mxCell id="109" value="" style="shape=partialRectangle;html=1;whiteSpace=wrap;connectable=0;overflow=hidden;fillColor=none;top=0;left=0;bottom=0;right=0;pointerEvents=1;" vertex="1" parent="103">
                    <mxGeometry x="414" width="83" height="40" as="geometry">
                        <mxRectangle width="83" height="40" as="alternateBounds"/>
                    </mxGeometry>
                </mxCell>
                <mxCell id="110" value="" style="shape=partialRectangle;html=1;whiteSpace=wrap;connectable=0;overflow=hidden;fillColor=none;top=0;left=0;bottom=0;right=0;pointerEvents=1;" vertex="1" parent="103">
                    <mxGeometry x="497" width="83" height="40" as="geometry">
                        <mxRectangle width="83" height="40" as="alternateBounds"/>
                    </mxGeometry>
                </mxCell>
                <mxCell id="111" value="" style="shape=tableRow;horizontal=0;startSize=0;swimlaneHead=0;swimlaneBody=0;top=0;left=0;bottom=0;right=0;collapsible=0;dropTarget=0;fillColor=none;points=[[0,0.5],[1,0.5]];portConstraint=eastwest;" vertex="1" parent="94">
                    <mxGeometry y="80" width="580" height="40" as="geometry"/>
                </mxCell>
                <mxCell id="112" value="" style="shape=partialRectangle;html=1;whiteSpace=wrap;connectable=0;overflow=hidden;fillColor=none;top=0;left=0;bottom=0;right=0;pointerEvents=1;" vertex="1" parent="111">
                    <mxGeometry width="83" height="40" as="geometry">
                        <mxRectangle width="83" height="40" as="alternateBounds"/>
                    </mxGeometry>
                </mxCell>
                <mxCell id="113" value="" style="shape=partialRectangle;html=1;whiteSpace=wrap;connectable=0;overflow=hidden;fillColor=none;top=0;left=0;bottom=0;right=0;pointerEvents=1;" vertex="1" parent="111">
                    <mxGeometry x="83" width="83" height="40" as="geometry">
                        <mxRectangle width="83" height="40" as="alternateBounds"/>
                    </mxGeometry>
                </mxCell>
                <mxCell id="114" value="" style="shape=partialRectangle;html=1;whiteSpace=wrap;connectable=0;overflow=hidden;fillColor=none;top=0;left=0;bottom=0;right=0;pointerEvents=1;" vertex="1" parent="111">
                    <mxGeometry x="166" width="83" height="40" as="geometry">
                        <mxRectangle width="83" height="40" as="alternateBounds"/>
                    </mxGeometry>
                </mxCell>
                <mxCell id="115" value="" style="shape=partialRectangle;html=1;whiteSpace=wrap;connectable=0;overflow=hidden;fillColor=none;top=0;left=0;bottom=0;right=0;pointerEvents=1;" vertex="1" parent="111">
                    <mxGeometry x="249" width="82" height="40" as="geometry">
                        <mxRectangle width="82" height="40" as="alternateBounds"/>
                    </mxGeometry>
                </mxCell>
                <mxCell id="116" value="" style="shape=partialRectangle;html=1;whiteSpace=wrap;connectable=0;overflow=hidden;fillColor=none;top=0;left=0;bottom=0;right=0;pointerEvents=1;" vertex="1" parent="111">
                    <mxGeometry x="331" width="83" height="40" as="geometry">
                        <mxRectangle width="83" height="40" as="alternateBounds"/>
                    </mxGeometry>
                </mxCell>
                <mxCell id="117" value="" style="shape=partialRectangle;html=1;whiteSpace=wrap;connectable=0;overflow=hidden;fillColor=none;top=0;left=0;bottom=0;right=0;pointerEvents=1;" vertex="1" parent="111">
                    <mxGeometry x="414" width="83" height="40" as="geometry">
                        <mxRectangle width="83" height="40" as="alternateBounds"/>
                    </mxGeometry>
                </mxCell>
                <mxCell id="118" value="" style="shape=partialRectangle;html=1;whiteSpace=wrap;connectable=0;overflow=hidden;fillColor=none;top=0;left=0;bottom=0;right=0;pointerEvents=1;" vertex="1" parent="111">
                    <mxGeometry x="497" width="83" height="40" as="geometry">
                        <mxRectangle width="83" height="40" as="alternateBounds"/>
                    </mxGeometry>
                </mxCell>
                <mxCell id="119" value="" style="shape=table;startSize=0;container=1;collapsible=0;childLayout=tableLayout;" vertex="1" parent="1">
                    <mxGeometry x="130" y="290" width="600" height="80" as="geometry"/>
                </mxCell>
                <mxCell id="120" value="" style="shape=tableRow;horizontal=0;startSize=0;swimlaneHead=0;swimlaneBody=0;top=0;left=0;bottom=0;right=0;collapsible=0;dropTarget=0;fillColor=none;points=[[0,0.5],[1,0.5]];portConstraint=eastwest;" vertex="1" parent="119">
                    <mxGeometry width="600" height="40" as="geometry"/>
                </mxCell>
                <mxCell id="121" value="Reg1" style="shape=partialRectangle;html=1;whiteSpace=wrap;connectable=0;overflow=hidden;fillColor=none;top=0;left=0;bottom=0;right=0;pointerEvents=1;" vertex="1" parent="120">
                    <mxGeometry width="60" height="40" as="geometry">
                        <mxRectangle width="60" height="40" as="alternateBounds"/>
                    </mxGeometry>
                </mxCell>
                <mxCell id="122" value="" style="shape=partialRectangle;html=1;whiteSpace=wrap;connectable=0;overflow=hidden;fillColor=none;top=0;left=0;bottom=0;right=0;pointerEvents=1;" vertex="1" parent="120">
                    <mxGeometry x="60" width="60" height="40" as="geometry">
                        <mxRectangle width="60" height="40" as="alternateBounds"/>
                    </mxGeometry>
                </mxCell>
                <mxCell id="123" value="" style="shape=partialRectangle;html=1;whiteSpace=wrap;connectable=0;overflow=hidden;fillColor=none;top=0;left=0;bottom=0;right=0;pointerEvents=1;" vertex="1" parent="120">
                    <mxGeometry x="120" width="60" height="40" as="geometry">
                        <mxRectangle width="60" height="40" as="alternateBounds"/>
                    </mxGeometry>
                </mxCell>
                <mxCell id="124" value="" style="shape=partialRectangle;html=1;whiteSpace=wrap;connectable=0;overflow=hidden;fillColor=none;top=0;left=0;bottom=0;right=0;pointerEvents=1;" vertex="1" parent="120">
                    <mxGeometry x="180" width="60" height="40" as="geometry">
                        <mxRectangle width="60" height="40" as="alternateBounds"/>
                    </mxGeometry>
                </mxCell>
                <mxCell id="125" value="" style="shape=partialRectangle;html=1;whiteSpace=wrap;connectable=0;overflow=hidden;fillColor=none;top=0;left=0;bottom=0;right=0;pointerEvents=1;" vertex="1" parent="120">
                    <mxGeometry x="240" width="60" height="40" as="geometry">
                        <mxRectangle width="60" height="40" as="alternateBounds"/>
                    </mxGeometry>
                </mxCell>
                <mxCell id="126" value="" style="shape=partialRectangle;html=1;whiteSpace=wrap;connectable=0;overflow=hidden;fillColor=none;top=0;left=0;bottom=0;right=0;pointerEvents=1;" vertex="1" parent="120">
                    <mxGeometry x="300" width="60" height="40" as="geometry">
                        <mxRectangle width="60" height="40" as="alternateBounds"/>
                    </mxGeometry>
                </mxCell>
                <mxCell id="127" value="" style="shape=partialRectangle;html=1;whiteSpace=wrap;connectable=0;overflow=hidden;fillColor=none;top=0;left=0;bottom=0;right=0;pointerEvents=1;" vertex="1" parent="120">
                    <mxGeometry x="360" width="60" height="40" as="geometry">
                        <mxRectangle width="60" height="40" as="alternateBounds"/>
                    </mxGeometry>
                </mxCell>
                <mxCell id="128" value="" style="shape=partialRectangle;html=1;whiteSpace=wrap;connectable=0;overflow=hidden;fillColor=none;top=0;left=0;bottom=0;right=0;pointerEvents=1;" vertex="1" parent="120">
                    <mxGeometry x="420" width="60" height="40" as="geometry">
                        <mxRectangle width="60" height="40" as="alternateBounds"/>
                    </mxGeometry>
                </mxCell>
                <mxCell id="129" value="" style="shape=partialRectangle;html=1;whiteSpace=wrap;connectable=0;overflow=hidden;fillColor=none;top=0;left=0;bottom=0;right=0;pointerEvents=1;" vertex="1" parent="120">
                    <mxGeometry x="480" width="60" height="40" as="geometry">
                        <mxRectangle width="60" height="40" as="alternateBounds"/>
                    </mxGeometry>
                </mxCell>
                <mxCell id="130" value="" style="shape=partialRectangle;html=1;whiteSpace=wrap;connectable=0;overflow=hidden;fillColor=none;top=0;left=0;bottom=0;right=0;pointerEvents=1;" vertex="1" parent="120">
                    <mxGeometry x="540" width="60" height="40" as="geometry">
                        <mxRectangle width="60" height="40" as="alternateBounds"/>
                    </mxGeometry>
                </mxCell>
                <mxCell id="131" value="" style="shape=tableRow;horizontal=0;startSize=0;swimlaneHead=0;swimlaneBody=0;top=0;left=0;bottom=0;right=0;collapsible=0;dropTarget=0;fillColor=none;points=[[0,0.5],[1,0.5]];portConstraint=eastwest;" vertex="1" parent="119">
                    <mxGeometry y="40" width="600" height="40" as="geometry"/>
                </mxCell>
                <mxCell id="132" value="Reg2" style="shape=partialRectangle;html=1;whiteSpace=wrap;connectable=0;overflow=hidden;fillColor=none;top=0;left=0;bottom=0;right=0;pointerEvents=1;" vertex="1" parent="131">
                    <mxGeometry width="60" height="40" as="geometry">
                        <mxRectangle width="60" height="40" as="alternateBounds"/>
                    </mxGeometry>
                </mxCell>
                <mxCell id="133" value="" style="shape=partialRectangle;html=1;whiteSpace=wrap;connectable=0;overflow=hidden;fillColor=none;top=0;left=0;bottom=0;right=0;pointerEvents=1;" vertex="1" parent="131">
                    <mxGeometry x="60" width="60" height="40" as="geometry">
                        <mxRectangle width="60" height="40" as="alternateBounds"/>
                    </mxGeometry>
                </mxCell>
                <mxCell id="134" value="" style="shape=partialRectangle;html=1;whiteSpace=wrap;connectable=0;overflow=hidden;fillColor=none;top=0;left=0;bottom=0;right=0;pointerEvents=1;" vertex="1" parent="131">
                    <mxGeometry x="120" width="60" height="40" as="geometry">
                        <mxRectangle width="60" height="40" as="alternateBounds"/>
                    </mxGeometry>
                </mxCell>
                <mxCell id="135" value="" style="shape=partialRectangle;html=1;whiteSpace=wrap;connectable=0;overflow=hidden;fillColor=none;top=0;left=0;bottom=0;right=0;pointerEvents=1;" vertex="1" parent="131">
                    <mxGeometry x="180" width="60" height="40" as="geometry">
                        <mxRectangle width="60" height="40" as="alternateBounds"/>
                    </mxGeometry>
                </mxCell>
                <mxCell id="136" value="" style="shape=partialRectangle;html=1;whiteSpace=wrap;connectable=0;overflow=hidden;fillColor=none;top=0;left=0;bottom=0;right=0;pointerEvents=1;" vertex="1" parent="131">
                    <mxGeometry x="240" width="60" height="40" as="geometry">
                        <mxRectangle width="60" height="40" as="alternateBounds"/>
                    </mxGeometry>
                </mxCell>
                <mxCell id="137" value="" style="shape=partialRectangle;html=1;whiteSpace=wrap;connectable=0;overflow=hidden;fillColor=none;top=0;left=0;bottom=0;right=0;pointerEvents=1;" vertex="1" parent="131">
                    <mxGeometry x="300" width="60" height="40" as="geometry">
                        <mxRectangle width="60" height="40" as="alternateBounds"/>
                    </mxGeometry>
                </mxCell>
                <mxCell id="138" value="" style="shape=partialRectangle;html=1;whiteSpace=wrap;connectable=0;overflow=hidden;fillColor=none;top=0;left=0;bottom=0;right=0;pointerEvents=1;" vertex="1" parent="131">
                    <mxGeometry x="360" width="60" height="40" as="geometry">
                        <mxRectangle width="60" height="40" as="alternateBounds"/>
                    </mxGeometry>
                </mxCell>
                <mxCell id="139" value="" style="shape=partialRectangle;html=1;whiteSpace=wrap;connectable=0;overflow=hidden;fillColor=none;top=0;left=0;bottom=0;right=0;pointerEvents=1;" vertex="1" parent="131">
                    <mxGeometry x="420" width="60" height="40" as="geometry">
                        <mxRectangle width="60" height="40" as="alternateBounds"/>
                    </mxGeometry>
                </mxCell>
                <mxCell id="140" value="" style="shape=partialRectangle;html=1;whiteSpace=wrap;connectable=0;overflow=hidden;fillColor=none;top=0;left=0;bottom=0;right=0;pointerEvents=1;" vertex="1" parent="131">
                    <mxGeometry x="480" width="60" height="40" as="geometry">
                        <mxRectangle width="60" height="40" as="alternateBounds"/>
                    </mxGeometry>
                </mxCell>
                <mxCell id="141" value="" style="shape=partialRectangle;html=1;whiteSpace=wrap;connectable=0;overflow=hidden;fillColor=none;top=0;left=0;bottom=0;right=0;pointerEvents=1;" vertex="1" parent="131">
                    <mxGeometry x="540" width="60" height="40" as="geometry">
                        <mxRectangle width="60" height="40" as="alternateBounds"/>
                    </mxGeometry>
                </mxCell>
            </root>
        </mxGraphModel>
    </diagram>
</mxfile>